<?xml version="1.0" standalone="no"?>
<!DOCTYPE svg PUBLIC "-//W3C//DTD SVG 20010904//EN"
 "http://www.w3.org/TR/2001/REC-SVG-20010904/DTD/svg10.dtd">
<svg version="1.0" xmlns="http://www.w3.org/2000/svg"
 width="1024.000000pt" height="1024.000000pt" viewBox="0 0 1024.000000 1024.000000"
 preserveAspectRatio="xMidYMid meet">

<g transform="translate(0.000000,1024.000000) scale(0.100000,-0.100000)"
fill="#000000" stroke="none">
<path d="M5005 9053 c-44 -23 -65 -44 -86 -85 -18 -36 -19 -72 -19 -845 l0
-808 -58 -27 c-127 -59 -240 -171 -305 -301 -65 -130 -71 -170 -71 -467 -1
-284 4 -332 50 -447 129 -323 436 -483 736 -383 50 17 114 46 144 66 82 55
170 157 214 249 68 142 73 168 77 475 5 320 -2 373 -69 509 -56 115 -169 231
-278 285 l-75 37 -5 814 -5 813 -30 44 c-56 79 -149 109 -220 71z m-199 -2287
c18 -14 19 -32 24 -325 l5 -310 29 -30 c41 -42 85 -42 120 0 l26 31 0 304 c0
291 1 305 20 324 25 25 61 26 91 1 l24 -19 5 -317 5 -317 24 -19 c42 -34 105
-19 134 31 15 24 17 66 17 319 l0 292 25 24 c13 14 36 25 50 25 14 0 37 -11
50 -25 l25 -24 0 -234 c0 -129 -4 -257 -10 -286 -24 -125 -130 -261 -239 -302
-109 -42 -257 -33 -340 19 -91 57 -163 148 -192 241 -18 62 -20 89 -17 320 3
252 3 253 27 272 28 22 69 25 97 5z"/>
<path d="M3995 8853 c-25 -25 -27 -33 -22 -83 3 -30 19 -104 36 -165 35 -128
56 -155 122 -155 31 0 47 7 70 29 36 36 36 56 3 180 -54 204 -65 221 -142 221
-29 0 -46 -7 -67 -27z"/>
<path d="M6027 8869 c-25 -15 -44 -57 -83 -186 -41 -134 -40 -168 7 -207 45
-38 92 -35 135 8 19 19 34 43 34 54 0 11 14 63 30 117 39 125 39 158 1 196
-23 22 -39 29 -68 29 -21 0 -46 -5 -56 -11z"/>
<path d="M3118 8531 c-50 -44 -44 -75 37 -216 84 -145 120 -185 167 -185 18 0
44 7 57 16 29 20 54 79 46 105 -13 41 -147 265 -171 287 -37 33 -95 30 -136
-7z"/>
<path d="M6892 8544 c-28 -19 -162 -284 -162 -319 0 -13 13 -39 29 -57 25 -28
36 -33 74 -33 24 0 52 7 61 14 10 8 38 53 62 100 24 48 55 106 69 131 41 73
32 136 -25 165 -37 19 -80 19 -108 -1z"/>
<path d="M4558 8280 c-593 -105 -1163 -360 -1598 -714 -215 -175 -510 -506
-687 -771 -423 -636 -616 -1216 -629 -1900 -5 -261 0 -291 55 -346 49 -49 97
-58 157 -29 78 38 81 51 87 375 5 302 14 385 68 610 30 122 86 300 125 390
l16 40 28 -135 c118 -583 552 -1007 1173 -1144 15 -4 26 -10 23 -15 -3 -4 -56
-37 -118 -71 -274 -153 -497 -326 -624 -484 -182 -227 -268 -445 -281 -716 -7
-156 6 -261 51 -395 140 -417 486 -794 1000 -1089 398 -229 912 -395 1346
-435 166 -16 503 -14 650 4 1007 118 1842 597 2432 1395 336 456 502 810 612
1310 69 314 95 746 65 1056 -36 371 -235 1011 -351 1131 -75 77 -188 62 -232
-31 -25 -54 -19 -91 33 -210 172 -387 256 -740 268 -1122 14 -421 -64 -849
-228 -1269 l-24 -60 -6 140 c-4 77 -12 169 -18 205 -33 183 -132 417 -249 585
-31 44 -106 130 -166 190 -204 203 -416 321 -744 411 l-33 9 138 92 c501 332
752 711 779 1173 17 284 -94 597 -305 860 -370 462 -1050 828 -1773 955 -70
12 -130 20 -133 17 -3 -3 -5 -70 -5 -148 0 -141 0 -144 23 -148 12 -3 63 -13
112 -21 234 -42 543 -148 796 -274 576 -288 943 -694 989 -1097 23 -207 -41
-436 -178 -629 -149 -211 -405 -418 -723 -584 -139 -72 -263 -131 -629 -296
-118 -53 -310 -144 -426 -201 l-211 -103 -177 81 -178 82 47 24 c26 13 109 47
185 77 258 100 585 258 777 376 220 134 434 325 555 494 105 148 185 339 219
525 29 152 9 429 -37 526 -36 75 -142 100 -204 48 -65 -55 -69 -81 -39 -274
22 -149 -11 -342 -87 -495 -75 -154 -247 -347 -413 -464 -263 -186 -478 -291
-1266 -619 l-120 -50 -70 35 c-38 20 -120 62 -181 94 l-111 59 11 56 c29 163
-90 355 -277 445 -202 96 -477 117 -624 48 -59 -28 -77 -72 -69 -162 20 -215
229 -532 406 -614 132 -62 258 -68 366 -19 l55 25 57 -36 c31 -19 68 -42 81
-50 32 -20 22 -25 -104 -53 -139 -31 -364 -38 -503 -16 -120 19 -327 83 -427
133 -175 87 -352 240 -446 385 -134 207 -199 442 -185 666 17 259 91 473 243
702 249 376 653 712 1092 910 284 128 570 217 839 260 l73 12 -3 146 c-3 122
-6 147 -18 149 -8 1 -63 -7 -122 -17z m2132 -3382 c381 -71 735 -346 882 -683
80 -182 98 -262 105 -456 6 -172 -6 -276 -53 -436 -201 -695 -990 -1321 -1914
-1517 -604 -128 -1210 -76 -1772 153 -180 73 -258 112 -421 210 -328 195 -579
427 -723 667 -242 404 -201 755 130 1121 148 164 448 350 878 547 170 78 551
241 671 288 l48 18 233 -117 234 -117 -72 -34 c-52 -25 -90 -54 -141 -107 -64
-65 -73 -71 -95 -62 -44 17 -199 11 -266 -11 -75 -23 -161 -80 -212 -137 l-39
-44 -64 27 c-75 31 -212 41 -303 22 -134 -28 -260 -126 -328 -256 -54 -102
-70 -171 -70 -295 1 -377 262 -778 640 -985 37 -20 77 -43 89 -51 l23 -13 -20
-38 c-25 -45 -25 -66 -1 -119 35 -76 6 -73 678 -73 582 0 599 1 631 20 59 36
79 133 37 180 -8 9 -15 19 -15 22 0 4 37 28 83 54 381 224 620 551 677 928 28
188 -37 380 -168 497 -26 23 -81 58 -122 78 -72 34 -80 36 -180 36 -58 0 -115
-2 -128 -5 -21 -4 -26 1 -43 50 -33 95 -83 158 -199 248 l-24 20 94 47 c405
204 709 313 924 334 92 10 235 4 316 -11z m-1487 -568 c96 -36 174 -127 192
-222 6 -33 3 -42 -24 -73 -17 -20 -43 -59 -57 -88 -15 -29 -27 -53 -29 -55 -1
-1 -30 24 -64 57 -44 42 -82 68 -129 87 -63 26 -69 31 -90 79 -12 28 -38 68
-57 90 -19 21 -35 41 -35 44 1 10 85 70 121 85 48 21 109 20 172 -4z m-523
-201 c24 -11 53 -27 63 -36 17 -16 14 -18 -50 -48 -90 -42 -183 -128 -223
-207 -16 -34 -30 -67 -30 -75 0 -10 -19 -13 -74 -13 l-74 0 -6 54 c-9 72 10
165 45 221 68 107 233 157 349 104z m-665 -137 l49 -17 1 -112 0 -113 -218 0
-217 0 6 28 c39 176 209 272 379 214z m1797 -24 c73 -22 152 -109 172 -190 l6
-28 -250 0 c-284 0 -270 -6 -225 85 36 75 70 108 132 131 48 17 114 18 165 2z
m-817 -137 c22 -10 56 -31 74 -47 l35 -29 -210 -5 c-115 -3 -211 -4 -213 -3
-8 5 33 44 68 65 79 49 164 56 246 19z m940 -363 c-16 -51 -113 -213 -172
-287 -177 -221 -416 -374 -692 -444 -72 -18 -116 -21 -266 -21 -156 -1 -193 3
-273 23 -190 47 -388 149 -541 280 -95 80 -203 221 -265 344 -31 62 -56 115
-56 120 0 4 511 7 1136 7 l1135 0 -6 -22z"/>
<path d="M6498 4648 c-82 -22 -158 -129 -158 -221 1 -110 132 -220 242 -203
61 9 117 44 152 94 81 114 20 291 -113 331 -44 13 -72 13 -123 -1z"/>
<path d="M6956 4105 c-40 -21 -55 -44 -56 -82 0 -44 17 -77 50 -96 40 -24 74
-21 109 9 59 50 46 140 -24 170 -42 17 -43 17 -79 -1z"/>
<path d="M6944 3520 c-64 -26 -84 -115 -38 -169 21 -26 33 -31 68 -31 53 0 82
21 97 69 9 32 8 44 -6 75 -17 35 -59 67 -87 65 -7 0 -23 -4 -34 -9z"/>
<path d="M6336 3009 c-80 -19 -140 -90 -153 -184 -8 -65 33 -146 96 -187 41
-26 53 -29 112 -26 88 5 141 38 175 111 28 62 30 108 5 162 -43 94 -140 145
-235 124z"/>
<path d="M2363 8004 c-29 -14 -63 -65 -63 -94 0 -27 35 -72 134 -170 58 -58
120 -111 136 -118 40 -16 74 -7 105 30 31 37 33 85 3 124 -46 61 -203 214
-234 229 -39 18 -41 18 -81 -1z"/>
<path d="M7732 8012 c-22 -3 -192 -157 -250 -224 -34 -40 -35 -108 -3 -142 29
-31 68 -40 106 -26 38 14 240 213 260 256 14 29 14 37 2 66 -23 55 -62 78
-115 70z"/>
<path d="M1781 7206 c-29 -16 -50 -52 -51 -86 0 -50 33 -83 149 -148 118 -66
154 -78 196 -68 45 11 78 90 59 140 -7 18 -161 116 -239 153 -57 26 -80 28
-114 9z"/>
<path d="M8199 7190 c-30 -16 -89 -48 -131 -70 -82 -42 -108 -73 -108 -128 0
-36 30 -75 70 -92 36 -15 53 -9 190 68 111 63 137 84 145 122 9 40 -18 96 -54
114 -41 22 -50 21 -112 -14z"/>
<path d="M3778 7144 c-62 -19 -123 -87 -137 -154 -30 -141 93 -277 232 -256
123 19 205 153 167 272 -36 114 -150 173 -262 138z"/>
<path d="M3183 6375 c-33 -14 -63 -59 -63 -95 0 -29 27 -77 49 -90 11 -5 38
-10 59 -10 83 0 124 106 65 169 -34 36 -68 44 -110 26z"/>
</g>
</svg>
